HIERARCHY
ROOT Hips
{
	OFFSET -0.179506 -22.333345 2.821913
	CHANNELS 6 Xposition Yposition Zposition Zrotation Yrotation Xrotation 
	JOINT LeftUpLeg
	{
		OFFSET 6.951974 -9.140623 -0.681533
		CHANNELS 3 Zrotation Yrotation Xrotation
		JOINT LeftLeg
		{
			OFFSET 3.427654 -37.519855 -0.449580
			CHANNELS 3 Zrotation Yrotation Xrotation
			JOINT LeftFoot
			{
				OFFSET -1.359570 -39.796059 -4.369333
				CHANNELS 3 Zrotation Yrotation Xrotation
				JOINT LeftToe
				{
					OFFSET 2.635814 -5.579078 11.928840
					CHANNELS 3 Zrotation Yrotation Xrotation
					End Site
					{
						OFFSET 0.000000 0.000000 0.000000
					}
				}
			}
		}
	}
	JOINT RightUpLeg
	{
		OFFSET -6.767048 -9.052170 -0.431982
		CHANNELS 3 Zrotation Yrotation Xrotation
		JOINT RightLeg
		{
			OFFSET -3.829005 -38.256897 -0.885003
			CHANNELS 3 Zrotation Yrotation Xrotation
			JOINT RightFoot
			{
				OFFSET 1.577377 -39.841461 -4.231180
				CHANNELS 3 Zrotation Yrotation Xrotation
				JOINT RightToe
				{
					OFFSET -2.537174 -4.814398 12.334795
					CHANNELS 3 Zrotation Yrotation Xrotation
					End Site
					{
						OFFSET 0.000000 0.000000 0.000000
					}
				}
			}
		}
	}
	JOINT Spine
	{
		OFFSET -0.253288 10.896323 -2.669631
		CHANNELS 3 Zrotation Yrotation Xrotation
		JOINT Spine1
		{
			OFFSET 0.548704 13.518043 0.109247
			CHANNELS 3 Zrotation Yrotation Xrotation
			JOINT Spine2
			{
				OFFSET 0.145701 5.292222 2.542457
				CHANNELS 3 Zrotation Yrotation Xrotation
				JOINT Neck
				{
					OFFSET -0.277840 21.387037 -4.285703
					CHANNELS 3 Zrotation Yrotation Xrotation
					JOINT Head
					{
						OFFSET 0.515184 6.496960 5.134897
						CHANNELS 3 Zrotation Yrotation Xrotation
						End Site
						{
							OFFSET 0.000000 0.000000 0.000000
						}
					}
				}
				JOINT LeftShoulder
				{
					OFFSET 7.884473 12.174932 -3.408961
					CHANNELS 3 Zrotation Yrotation Xrotation
					JOINT LeftArm
					{
						OFFSET 9.097692 3.046888 -0.886815
						CHANNELS 3 Zrotation Yrotation Xrotation
						JOINT LeftForeArm
						{
							OFFSET 25.961220 -1.277207 -2.745643
							CHANNELS 3 Zrotation Yrotation Xrotation
							JOINT LeftHand
							{
								OFFSET 24.923361 0.898606 -0.117091
								CHANNELS 3 Zrotation Yrotation Xrotation
								End Site
								{
									OFFSET 0.000000 0.000000 0.000000
								}
							}
						}
					}
				}
				JOINT RightShoulder
				{
					OFFSET -8.175920 11.883285 -3.861528
					CHANNELS 3 Zrotation Yrotation Xrotation
					JOINT RightArm
					{
						OFFSET -9.601238 3.255117 -0.914307
						CHANNELS 3 Zrotation Yrotation Xrotation
						JOINT RightForeArm
						{
							OFFSET -25.374195 -1.332924 -2.140099
							CHANNELS 3 Zrotation Yrotation Xrotation
							JOINT RightHand
							{
								OFFSET -25.529810 0.777228 -0.555919
								CHANNELS 3 Zrotation Yrotation Xrotation
								End Site
								{
									OFFSET 0.000000 0.000000 0.000000
								}
							}
						}
					}
				}
			}
		}
	}
}
MOTION
Frames: 13
Frame Time: 0.033333
86.044128 -91.856636 92.446861 -173.967254 2.614833 85.538537 1.983375 3.037798 -6.175065 -1.033703 14.545372 28.867873 -1.242634 9.694153 -30.760425 nan nan nan -9.988597 1.439088 0.931853 1.674675 -2.547227 6.445194 9.284259 4.682749 -14.028134 nan nan nan 4.958388 2.588521 18.764078 7.018584 -5.086988 5.841808 5.305601 -2.739038 -0.467565 1.810419 5.173944 -2.725701 -6.832125 0.838018 -3.247154 -21.222676 -2.934090 2.672229 -70.493812 -4.941385 10.055009 13.338604 -45.172837 7.137360 -3.337101 -26.090424 -12.951910 20.823781 6.730593 -4.095548 52.499586 12.428952 22.836459 -169.665948 70.608282 -149.286833 -10.448186 30.609371 -29.923925 
86.589256 -91.880630 92.564972 -174.064424 2.610568 85.515986 2.142665 3.061571 -5.974632 -0.865335 14.164606 28.361280 -1.350618 9.869724 -30.181075 nan nan nan -9.649741 1.389463 1.143774 1.649533 -2.678547 6.007709 9.390291 4.836513 -13.903523 nan nan nan 4.693911 2.658361 18.706868 6.962327 -5.105760 5.833591 5.325200 -2.757968 -0.464380 1.890318 5.434344 -2.761674 -6.707973 0.722656 -3.082196 -21.254267 -2.918780 2.600315 -70.365702 -4.957849 10.211638 13.576759 -45.063809 7.076570 -3.281526 -26.011317 -12.831839 21.055022 6.742195 -4.075022 52.343326 12.374208 22.801638 -169.491457 70.643843 -149.132595 -10.612005 30.726812 -29.961369 
87.107140 -91.885216 92.683861 -174.196733 2.590975 85.472911 2.337931 3.107229 -5.825314 -0.717480 13.930826 28.083023 -1.497511 9.837187 -29.548812 nan nan nan -9.378653 1.345113 1.379755 1.680632 -2.834782 5.559227 9.459401 5.098423 -13.809112 nan nan nan 4.462563 2.713954 18.642086 6.906492 -5.078509 5.794399 5.320658 -2.787918 -0.388918 1.924556 5.648955 -2.904632 -6.639057 0.551089 -2.762359 -21.336643 -2.793218 2.448471 -70.200495 -5.057391 10.360187 13.679787 -44.809487 7.103780 -3.342082 -26.094004 -12.511689 21.306295 6.635118 -4.082690 52.186758 12.413289 22.790107 -169.714918 70.705835 -149.356593 -10.855718 30.733133 -30.241175 
87.606934 -91.900436 92.802094 -174.311420 2.548190 85.467240 2.541753 3.079198 -5.810902 -0.582083 13.816152 27.935035 -1.542172 9.679444 -28.775288 nan nan nan -9.155769 1.328822 1.526695 1.745204 -2.948705 5.160824 9.480526 5.297373 -13.766567 nan nan nan 4.226842 2.771866 18.509306 6.889912 -5.066129 5.831937 5.270349 -2.763053 -0.295376 1.949618 5.834227 -3.100959 -6.590605 0.293953 -2.559570 -21.378704 -2.713811 2.326996 -70.087177 -5.275860 10.553767 13.833367 -44.442592 7.073881 -3.072511 -26.171590 -12.408235 21.502029 6.491660 -4.103235 52.125087 12.474755 22.806047 -169.562711 70.725806 -149.006091 -10.873186 30.766698 -30.394054 
88.099358 -91.929298 92.927269 -174.354364 2.489731 85.454777 2.772960 3.020721 -5.831006 -0.515515 13.800935 27.801918 -1.603900 9.482849 -27.997487 nan nan nan -8.957167 1.306308 1.598281 1.835533 -3.008980 4.959917 9.392079 5.383381 -13.741702 nan nan nan 4.007269 2.815929 18.423373 6.884871 -5.087983 5.915692 5.219741 -2.765364 -0.306597 1.966853 6.009371 -3.292376 -6.611222 0.114088 -2.380882 -21.425619 -2.733155 2.298348 -69.884679 -5.442674 10.679617 13.955616 -44.157278 6.944661 -3.060121 -26.159152 -12.533220 21.672989 6.438128 -4.123677 52.054210 12.528968 22.918216 -169.237488 70.759392 -148.597159 -10.992721 30.788764 -30.482858 
88.556725 -91.946732 93.056442 -174.408262 2.372737 85.353389 2.939765 3.065756 -5.722564 -0.467947 13.806270 27.602509 -1.723524 9.306198 -27.417068 nan nan nan -8.832034 1.224727 1.768054 1.904849 -2.994488 4.777211 9.329933 5.544625 -13.773040 nan nan nan 3.828458 2.879032 18.352475 6.812822 -5.169304 6.178655 5.130912 -2.774509 -0.412448 1.925250 6.262555 -3.358519 -6.615834 -0.011765 -2.304589 -21.509204 -2.814029 2.260047 -69.597950 -5.513777 10.726832 14.151965 -44.011626 6.840850 -3.201046 -25.950832 -12.418057 21.919581 6.499935 -4.066879 51.941071 12.600042 22.912875 -168.981378 70.816384 -148.410807 -10.973712 30.783739 -30.768798 
88.994698 -91.967323 93.167740 -174.506747 2.222162 85.268937 3.033439 3.053439 -5.561083 -0.325485 13.895428 27.352390 -1.916848 9.102214 -26.971805 nan nan nan -8.739161 1.198466 1.992822 1.977930 -2.949613 4.421960 9.373253 5.577500 -13.836875 nan nan nan 3.661164 2.962659 18.217848 6.710456 -5.254502 6.445214 4.984358 -2.811465 -0.446244 1.940392 6.584990 -3.381248 -6.583022 -0.133644 -2.352061 -21.521673 -2.808382 2.238581 -69.397351 -5.679161 10.923991 14.429236 -43.787477 6.741788 -2.966321 -25.814707 -12.598394 22.194776 6.481432 -4.047390 51.922880 12.800969 23.052685 -168.648910 70.962732 -148.047834 -11.018474 30.819539 -31.086483 
89.452698 -92.004158 93.267143 -174.609974 2.155942 85.217598 3.249060 3.083573 -5.436662 -0.247188 13.881390 27.131490 -2.140808 8.914049 -26.615849 nan nan nan -8.503083 1.169788 2.151741 1.996534 -2.923479 4.124079 9.303707 5.555449 -13.885199 nan nan nan 3.492942 3.011226 18.204555 6.648635 -5.231526 6.498012 4.956464 -2.809929 -0.481196 1.860956 6.649974 -3.402118 -6.548205 -0.220202 -2.351549 -21.548750 -2.868976 2.230539 -69.259208 -5.783400 10.949344 14.586986 -43.559536 6.530681 -2.776018 -25.818531 -12.956910 22.297242 6.510416 -4.030166 51.973658 12.785646 23.096547 -168.406087 71.040492 -147.651783 -10.933211 30.812115 -31.036283 
89.905800 -92.041885 93.357285 -174.787103 2.099470 85.186272 3.494174 3.185150 -5.298806 -0.208779 13.940405 26.857473 -2.279082 8.666852 -26.212938 nan nan nan -8.206047 1.198673 2.206951 1.915607 -2.895893 3.940324 9.083755 5.550642 -13.937437 nan nan nan 3.323732 3.003370 18.194096 6.561099 -5.198744 6.563116 4.907884 -2.716275 -0.560558 1.745749 6.731069 -3.398615 -6.409847 -0.319242 -2.270860 -21.517915 -2.925962 2.187239 -69.149923 -5.745125 10.895240 14.817656 -43.433645 6.290129 -2.916797 -25.802348 -12.938334 22.370110 6.660064 -3.885208 52.080854 12.692209 23.016595 -167.897114 71.038685 -146.985341 -10.357937 30.911306 -30.784293 
90.329521 -92.066391 93.449921 -174.932414 2.041193 85.153460 3.713214 3.299980 -5.143840 -0.195674 13.944501 26.546679 -2.451235 8.445837 -25.828205 nan nan nan -7.913770 1.217649 2.302189 1.801933 -2.900091 3.717142 8.984000 5.598380 -13.744770 nan nan nan 3.200974 3.032206 18.249398 6.455310 -5.130160 6.477887 4.894116 -2.698990 -0.600527 1.621458 6.804388 -3.408051 -6.253527 -0.378706 -2.118964 -21.496126 -2.963206 2.166794 -69.088437 -5.748263 10.808481 14.997312 -43.252071 6.142215 -3.233635 -25.820242 -12.598385 22.406405 6.682648 -3.875177 52.240793 12.583253 22.972307 -167.871611 71.045080 -146.961671 -9.959223 30.897426 -30.739919 
90.733742 -92.081108 93.530594 -175.041485 2.000699 85.037042 3.950026 3.487574 -4.889865 -0.148392 13.999524 26.253689 -2.712589 8.170959 -25.481463 nan nan nan -7.613972 1.215776 2.477028 1.673277 -2.936729 3.512467 8.941890 5.722381 -13.481365 nan nan nan 3.180103 2.939808 18.415289 6.308089 -5.108942 6.647994 4.812380 -2.616188 -0.918168 1.516264 6.968921 -3.515967 -6.163246 -0.399904 -1.881933 -21.445703 -2.876117 2.044811 -69.052679 -5.648956 10.688701 15.108884 -43.198312 6.122808 -3.428063 -25.740734 -12.361295 22.385080 6.681662 -3.941688 52.497037 12.527569 23.056489 -168.097923 71.079994 -147.278128 -10.324120 30.712988 -30.976620 
91.120415 -92.085617 93.590691 -175.233926 1.930362 84.869239 4.158986 3.749462 -4.535746 -0.127560 14.115817 25.908367 -2.860883 8.027836 -25.181765 nan nan nan -7.392970 1.196841 2.623692 1.595678 -2.828898 3.426632 8.733775 5.811736 -13.298720 nan nan nan 3.184083 2.740833 18.443133 6.106735 -5.185802 7.210955 4.579564 -2.368492 -1.308052 1.460565 7.235111 -3.766285 -6.068380 -0.528287 -1.643358 -21.316370 -2.719001 1.793026 -68.936279 -5.467308 10.585688 15.120672 -43.288226 6.185056 -3.294001 -25.611331 -12.412045 22.447781 6.808099 -3.846783 52.726376 12.617931 23.074021 -167.984210 71.116565 -147.131552 -10.635674 30.642370 -31.065960 
91.449409 -92.082962 93.657654 -175.298524 1.894807 84.964842 4.294421 3.850667 -4.461979 -0.086731 14.117770 25.540501 -2.897527 8.061409 -24.879456 nan nan nan -7.231654 1.136527 2.534307 1.643308 -2.782888 3.329659 8.622081 5.925829 -13.064585 nan nan nan 3.086298 2.961795 18.039834 6.131025 -5.070603 7.103964 4.643241 -2.480552 -1.024971 1.354662 7.080500 -3.541923 -5.930049 -0.712423 -1.749226 -21.519909 -3.088633 1.983936 -68.865037 -5.651734 10.594889 15.505400 -43.038078 5.591619 -3.498832 -25.332458 -12.256828 22.532255 6.787040 -3.810853 52.464244 12.540186 22.754534 -167.990472 71.078972 -147.043010 -10.269732 30.584656 -30.875832 
